<svg width="24" height="26" viewBox="0 0 24 26" fill="none" xmlns="http://www.w3.org/2000/svg">
<path opacity="0.72" fill-rule="evenodd" clip-rule="evenodd" d="M18.7658 8.63291C16.5981 8.63291 14.8281 6.8761 14.8281 4.70841V2.01921L21.7842 8.63291H18.7658ZM23.6319 8.86469C23.6319 8.81201 23.6319 8.7725 23.6187 8.71983C23.5792 8.48278 23.5397 8.24573 23.5002 8.02185C23.4738 7.87698 23.408 7.75846 23.3026 7.6531L15.8356 0.541596C15.7434 0.44941 15.6117 0.383563 15.48 0.370393C15.2561 0.344055 15.0191 0.317715 14.782 0.291377C14.7425 0.278207 14.6898 0.278207 14.6503 0.278207C13.8865 0.21236 13.0436 0.172852 12.1613 0.172852C3.5221 0.172852 0.453613 3.53106 0.453613 13.0131C0.453613 22.4819 3.5221 25.8533 12.1613 25.8533C20.8136 25.8533 23.8821 22.4819 23.8821 13.0131C23.8821 11.4327 23.8031 10.0631 23.6319 8.86469Z" fill="white"/>
<path d="M7.47843 18.6651H14.5886C15.1351 18.6651 15.5763 18.2226 15.5763 17.6773C15.5763 17.1321 15.1351 16.6896 14.5886 16.6896H7.47843C6.93322 16.6896 6.49072 17.1321 6.49072 17.6773C6.49072 18.2226 6.93322 18.6651 7.47843 18.6651Z" fill="#04CEB7"/>
<path d="M11.8952 11.4074H7.4755C6.93029 11.4074 6.48779 11.8499 6.48779 12.3951C6.48779 12.9417 6.93029 13.3828 7.4755 13.3828H11.8952C12.4404 13.3828 12.8829 12.9417 12.8829 12.3951C12.8829 11.8499 12.4404 11.4074 11.8952 11.4074Z" fill="#04CEB7"/>
</svg>
