<svg width="25" height="27" viewBox="0 0 25 27" fill="none" xmlns="http://www.w3.org/2000/svg">
<g opacity="0.62">
<path opacity="0.4" fill-rule="evenodd" clip-rule="evenodd" d="M21.484 5.77284C21.0341 5.37625 20.5223 4.92761 19.9125 4.36371C19.6361 4.14063 19.3337 3.88533 19.0128 3.61515C17.2033 2.08953 14.7246 0 12.4653 0C10.232 0 7.91318 1.97303 6.05045 3.55814C5.70592 3.85063 5.38369 4.12576 5.05526 4.39222C4.47773 4.92761 3.96589 5.37749 3.51477 5.77532C0.556463 8.37917 0 9.06205 0 15.1361C0 26.0261 3.14916 26.0261 12.5 26.0261C21.8496 26.0261 25 26.0261 25 15.1361C25 9.06081 24.4435 8.37793 21.484 5.77284Z" fill="white"/>
<path d="M8.89679 19.0669H16.1036C16.6167 19.0669 17.0331 18.6505 17.0331 18.1374C17.0331 17.6243 16.6167 17.2079 16.1036 17.2079H8.89679C8.3837 17.2079 7.96729 17.6243 7.96729 18.1374C7.96729 18.6505 8.3837 19.0669 8.89679 19.0669Z" fill="white"/>
</g>
</svg>
