<svg width="37" height="34" viewBox="0 0 37 34" fill="none" xmlns="http://www.w3.org/2000/svg">
<g opacity="0.62">
<path opacity="0.4" fill-rule="evenodd" clip-rule="evenodd" d="M13.248 7.01306C3.65071 7.01306 0.248047 10.4157 0.248047 20.0131C0.248047 29.6104 3.65071 33.0131 13.248 33.0131C22.8467 33.0131 26.248 29.6104 26.248 20.0131C26.248 10.4157 22.8467 7.01306 13.248 7.01306Z" fill="white"/>
<path fill-rule="evenodd" clip-rule="evenodd" d="M35.6731 11.1451C34.3074 9.67436 30.1054 12.3181 27.7242 13.999C28.1269 15.7323 28.3195 17.7458 28.3195 20.0219C28.3195 22.2805 28.1269 24.259 27.7418 25.9923C29.6502 27.3404 32.7667 29.3189 34.5876 29.3189C35.0428 29.3189 35.428 29.1963 35.6731 28.9162C37.3014 27.1829 37.3014 12.8959 35.6731 11.1451Z" fill="white"/>
</g>
<circle cx="25.5" cy="6.5" r="6.5" fill="#EE4E4E" fill-opacity="0.66"/>
<circle cx="25.5" cy="6.5" r="3.5" fill="#F2613F"/>
</svg>
