<svg width="33" height="18" viewBox="0 0 33 18" fill="none" xmlns="http://www.w3.org/2000/svg">
<path fill-rule="evenodd" clip-rule="evenodd" d="M13.1809 0.844554C14.0255 1.68757 14.317 4.54278 14.3958 7.29234L14.4053 10.4438C14.3218 13.9687 13.9121 16.1274 13.1809 16.8586C12.2922 17.7457 10.811 17.2903 9.6198 16.7955C7.14748 15.7697 -4.76837e-06 11.4428 -4.76837e-06 8.85073C-4.76837e-06 6.17988 7.46578 1.8672 9.73325 0.926492C10.9655 0.414381 12.3379 0.00469285 13.1809 0.844554Z" fill="#04CEB7"/>
<path opacity="0.4" fill-rule="evenodd" clip-rule="evenodd" d="M14.3974 7.29269H31.3452C32.2165 7.29269 32.9209 7.99704 32.9209 8.86842C32.9209 9.73979 32.2165 10.4441 31.3452 10.4441H14.4069L14.3974 7.29269Z" fill="#04CEB7"/>
</svg>
