<svg width="22" height="22" viewBox="0 0 22 22" fill="none" xmlns="http://www.w3.org/2000/svg">
<path d="M10.5591 0.0252686C-3.4014 0.576195 -3.40626 20.4715 10.5591 21.0253C14.3205 21.0253 17.7956 19.0235 19.6764 15.7748C21.5571 12.526 21.5571 8.52451 19.6764 5.27575C17.7957 2.027 14.3205 0.0252686 10.5591 0.0252686ZM17.5171 11.0601V11.061C17.2176 11.3549 16.7365 11.354 16.4389 11.0591L14.8378 9.46226C14.5763 9.192 14.5516 8.77192 14.7798 8.47323C15.008 8.17455 15.4206 8.08634 15.7515 8.26652C15.0897 6.75121 13.7967 5.6011 12.2117 5.11924C10.6267 4.63752 8.90961 4.87175 7.51368 5.76119C6.11694 6.65066 5.18136 8.10526 4.95305 9.74184C4.72486 11.3785 5.22688 13.0333 6.32695 14.2687C7.42703 15.5041 9.01488 16.1974 10.6713 16.1642C12.3285 16.132 13.8869 15.3781 14.9374 14.0999C15.2046 13.7822 15.6781 13.7367 16.0004 13.9984C16.3237 14.2592 16.376 14.7305 16.1193 15.0567C11.9585 20.253 3.29472 17.122 3.37943 10.525C3.73884 1.71964 15.5745 0.900356 17.5359 8.89685L18.0436 8.38955C18.3422 8.10318 18.8157 8.10791 19.1085 8.39998C19.4014 8.69205 19.4061 9.16426 19.119 9.46202L17.5171 11.0601Z" fill="#03A592"/>
</svg>
