<svg width="20" height="20" viewBox="0 0 20 20" fill="none" xmlns="http://www.w3.org/2000/svg">
<path d="M8.59922 17.3065C13.3484 17.3065 17.1984 13.4323 17.1984 8.65324C17.1984 3.87419 13.3484 0 8.59922 0C3.85 0 0 3.87419 0 8.65324C0 13.4323 3.85 17.3065 8.59922 17.3065Z" fill="#04CEB7"/>
<path opacity="0.4" d="M18.6745 19.9553C18.3405 19.9444 18.0228 19.807 17.7853 19.5705L15.7488 17.1902C15.3122 16.7909 15.2765 16.1123 15.6688 15.6689C15.8524 15.4831 16.102 15.3786 16.3624 15.3786C16.6228 15.3786 16.8725 15.4831 17.0561 15.6689L19.6172 17.7181C19.9861 18.0957 20.0999 18.6563 19.9078 19.1492C19.7157 19.6422 19.2535 19.9754 18.7279 20L18.6745 19.9553Z" fill="#04CEB7"/>
</svg>
