<svg width="27" height="27" viewBox="0 0 27 27" fill="none" xmlns="http://www.w3.org/2000/svg">
<g opacity="0.62">
<path opacity="0.4" fill-rule="evenodd" clip-rule="evenodd" d="M13.4409 0.0130615C3.84358 0.0130615 0.440918 3.41573 0.440918 13.0131C0.440918 22.6104 3.84358 26.0131 13.4409 26.0131C23.0396 26.0131 26.4409 22.6104 26.4409 13.0131C26.4409 3.41573 23.0396 0.0130615 13.4409 0.0130615Z" fill="white"/>
<path d="M11.827 17.6477C12.2537 17.6477 12.711 17.4917 13.111 17.3264C14.0537 16.9357 18.4484 14.5197 18.4484 12.8211C18.4484 11.1491 14.147 8.77977 13.0484 8.32511C12.603 8.13977 11.5617 7.71177 10.9324 8.33977C10.7529 8.52057 10.2083 9.06917 10.1937 12.7957C10.1777 16.5464 10.7466 17.1153 10.9322 17.3009C11.1856 17.5543 11.4964 17.6477 11.827 17.6477Z" fill="white"/>
</g>
</svg>
