<svg width="11" height="11" viewBox="0 0 11 11" fill="none" xmlns="http://www.w3.org/2000/svg">
<path fill-rule="evenodd" clip-rule="evenodd" d="M10.4887 0.90208C10.9543 1.36765 10.9543 2.12235 10.4887 2.58792L2.8718 10.2049C2.40621 10.6704 1.65139 10.6704 1.18583 10.2049C0.720282 9.73929 0.720282 8.98459 1.18583 8.51902L8.80274 0.90208C9.26831 0.436449 10.0232 0.436449 10.4887 0.90208Z" fill="white"/>
<path fill-rule="evenodd" clip-rule="evenodd" d="M1.18242 0.899153C1.64798 0.433681 2.4028 0.433681 2.86838 0.899153L10.498 8.52881C10.9636 8.99438 10.9636 9.74923 10.498 10.2148C10.0325 10.6804 9.27761 10.6804 8.81204 10.2148L1.18242 2.58515C0.716864 2.11958 0.716864 1.36472 1.18242 0.899153Z" fill="white"/>
</svg>
